<?xml version="1.0" encoding="utf-8"?>
<!-- Generator: Adobe Illustrator 21.0.0, SVG Export Plug-In . SVG Version: 6.00 Build 0)  -->
<svg version="1.1" id="Layer_1" xmlns="http://www.w3.org/2000/svg" xmlns:xlink="http://www.w3.org/1999/xlink" x="0px" y="0px"
	 viewBox="0 0 1000 1000" style="enable-background:new 0 0 1000 1000;" xml:space="preserve">
<style type="text/css">
	.st0{fill:#262626;}
	.st1{fill:#FFFFFF;}
</style>
<path class="st0" d="M500,0C224.3,0,0,224.3,0,500c0,275.7,224.3,500,500,500c275.7,0,500-224.3,500-500C1000,224.3,775.7,0,500,0z
	 M537.1,355.8h363.6c16.3,45,25.1,93.6,25.1,144.2c0,8.2-0.3,16.4-0.7,24.5h-388V355.8z M500,74.2c155,0,290.9,83.3,365.4,207.4
	H134.6C209.1,157.5,345,74.2,500,74.2z M74.2,500c0-50.6,8.9-99.1,25.1-144.2h363.6v568.3C245.4,905.3,74.2,722.3,74.2,500z
	 M537.1,924.2V598.7h377.1C872.4,774.4,721.3,908.2,537.1,924.2z"/>
</svg>
